# Blender v2.68 (sub 0) OBJ File: 'Target.blend'
# www.blender.org
o Cylinder
v 0.000000 -0.015652 -1.000000
v 0.000000 0.015652 -1.000000
v 0.195090 -0.015652 -0.980785
v 0.195090 0.015652 -0.980785
v 0.382683 -0.015652 -0.923880
v 0.382683 0.015652 -0.923880
v 0.555570 -0.015652 -0.831470
v 0.555570 0.015652 -0.831470
v 0.707107 -0.015652 -0.707107
v 0.707107 0.015652 -0.707107
v 0.831470 -0.015652 -0.555570
v 0.831470 0.015652 -0.555570
v 0.923880 -0.015652 -0.382683
v 0.923880 0.015652 -0.382683
v 0.980785 -0.015652 -0.195090
v 0.980785 0.015652 -0.195090
v 1.000000 -0.015652 -0.000000
v 1.000000 0.015652 -0.000000
v 0.980785 -0.015652 0.195090
v 0.980785 0.015652 0.195090
v 0.923880 -0.015652 0.382683
v 0.923880 0.015652 0.382683
v 0.831470 -0.015652 0.555570
v 0.831470 0.015652 0.555570
v 0.707107 -0.015652 0.707107
v 0.707107 0.015652 0.707107
v 0.555570 -0.015652 0.831470
v 0.555570 0.015652 0.831470
v 0.382683 -0.015652 0.923880
v 0.382683 0.015652 0.923880
v 0.195090 -0.015652 0.980785
v 0.195090 0.015652 0.980785
v -0.000000 -0.015652 1.000000
v -0.000000 0.015652 1.000000
v -0.195091 -0.015652 0.980785
v -0.195091 0.015652 0.980785
v -0.382684 -0.015652 0.923879
v -0.382684 0.015652 0.923879
v -0.555571 -0.015652 0.831469
v -0.555571 0.015652 0.831469
v -0.707107 -0.015652 0.707106
v -0.707107 0.015652 0.707106
v -0.831470 -0.015652 0.555570
v -0.831470 0.015652 0.555570
v -0.923880 -0.015652 0.382683
v -0.923880 0.015652 0.382683
v -0.980785 -0.015652 0.195089
v -0.980785 0.015652 0.195089
v -1.000000 -0.015652 -0.000001
v -1.000000 0.015652 -0.000001
v -0.980785 -0.015652 -0.195091
v -0.980785 0.015652 -0.195091
v -0.923879 -0.015652 -0.382684
v -0.923879 0.015652 -0.382684
v -0.831469 -0.015652 -0.555571
v -0.831469 0.015652 -0.555571
v -0.707106 -0.015652 -0.707108
v -0.707106 0.015652 -0.707108
v -0.555569 -0.015652 -0.831470
v -0.555569 0.015652 -0.831470
v -0.382682 -0.015652 -0.923880
v -0.382682 0.015652 -0.923880
v -0.195089 -0.015652 -0.980786
v -0.195089 0.015652 -0.980786
vt 0.250072 0.000125
vt 0.250068 0.031780
vt 0.218829 0.000124
vt 0.218825 0.031780
vt 0.187586 0.000124
vt 0.187581 0.031780
vt 0.156343 0.000123
vt 0.156338 0.031780
vt 0.125099 0.000122
vt 0.125094 0.031780
vt 0.093856 0.000122
vt 0.093850 0.031779
vt 0.062613 0.000121
vt 0.062607 0.031779
vt 0.031369 0.000121
vt 0.031363 0.031778
vt 0.000126 0.000120
vt 0.999880 0.000135
vt 0.999880 0.031773
vt 0.968639 0.000135
vt 0.968639 0.031773
vt 0.937397 0.000135
vt 0.937398 0.031773
vt 0.906156 0.000135
vt 0.906156 0.031774
vt 0.874915 0.000135
vt 0.874915 0.031774
vt 0.843673 0.000135
vt 0.843674 0.031775
vt 0.812432 0.000135
vt 0.812432 0.031775
vt 0.781190 0.000135
vt 0.781190 0.031776
vt 0.749949 0.000135
vt 0.749949 0.031776
vt 0.718707 0.000135
vt 0.718707 0.031777
vt 0.687466 0.000134
vt 0.687465 0.031777
vt 0.656224 0.000134
vt 0.656223 0.031778
vt 0.624982 0.000134
vt 0.624981 0.031778
vt 0.593741 0.000133
vt 0.593738 0.031778
vt 0.562499 0.000133
vt 0.562496 0.031779
vt 0.531257 0.000132
vt 0.531254 0.031779
vt 0.500015 0.000132
vt 0.500011 0.031779
vt 0.468773 0.000131
vt 0.468769 0.031779
vt 0.437530 0.000130
vt 0.437526 0.031780
vt 0.406287 0.000129
vt 0.406283 0.031780
vt 0.375044 0.000128
vt 0.375040 0.031780
vt 0.343801 0.000127
vt 0.343797 0.031780
vt 0.312558 0.000127
vt 0.170998 0.072678
vt 0.159970 0.067472
vt 0.179662 0.078800
vt 0.281315 0.000126
vt 0.281311 0.031780
vt 0.312554 0.031780
vt 0.272281 0.093703
vt 0.359523 0.057566
vt 0.193765 0.146165
vt 0.000120 0.031778
vt 0.147003 0.063381
vt 0.132595 0.060564
vt 0.117300 0.059127
vt 0.101704 0.059127
vt 0.086408 0.060564
vt 0.072000 0.063381
vt 0.059033 0.067472
vt 0.048006 0.072678
vt 0.039341 0.078800
vt 0.033373 0.085603
vt 0.030331 0.092824
vt 0.030331 0.100188
vt 0.033373 0.107409
vt 0.039341 0.114212
vt 0.048006 0.120334
vt 0.059033 0.125540
vt 0.072000 0.129631
vt 0.101704 0.133885
vt 0.086408 0.132449
vt 0.117300 0.133885
vt 0.132595 0.132449
vt 0.147003 0.129631
vt 0.159970 0.125540
vt 0.188673 0.092824
vt 0.185630 0.107409
vt 0.188673 0.100188
vt 0.179662 0.114212
vt 0.170998 0.120334
vt 0.185630 0.085603
vt 0.452139 0.039143
vt 0.546570 0.039142
vt 0.639185 0.057564
vt 0.726428 0.093701
vt 0.804944 0.146163
vt 0.871717 0.212935
vt 0.924181 0.291451
vt 0.960318 0.378693
vt 0.978741 0.471309
vt 0.978741 0.565740
vt 0.960318 0.658356
vt 0.019972 0.565740
vt 0.074530 0.745597
vt 0.038394 0.658355
vt 0.924181 0.745598
vt 0.871720 0.824113
vt 0.639187 0.979487
vt 0.804947 0.890886
vt 0.726430 0.943349
vt 0.359524 0.979486
vt 0.546569 0.997909
vt 0.452139 0.997909
vt 0.126992 0.824113
vt 0.272281 0.943349
vt 0.193764 0.890885
vt 0.126993 0.212938
vt 0.074531 0.291454
vt 0.038394 0.378696
vt 0.019972 0.471311
vn 0.098017 0.000000 -0.995185
vn 0.290285 0.000000 -0.956940
vn 0.471397 0.000000 -0.881921
vn 0.634393 0.000000 -0.773010
vn 0.773010 0.000000 -0.634393
vn 0.881921 0.000000 -0.471397
vn 0.956940 0.000000 -0.290285
vn 0.995185 0.000000 -0.098017
vn 0.995185 0.000000 0.098017
vn 0.956940 0.000000 0.290285
vn 0.881921 0.000000 0.471396
vn 0.773010 0.000000 0.634393
vn 0.634393 0.000000 0.773010
vn 0.471397 0.000000 0.881921
vn 0.290284 0.000000 0.956940
vn 0.098017 0.000000 0.995185
vn -0.098018 0.000000 0.995185
vn -0.290285 0.000000 0.956940
vn -0.471397 0.000000 0.881921
vn -0.634394 0.000000 0.773010
vn -0.773011 0.000000 0.634393
vn -0.881922 0.000000 0.471396
vn -0.956941 0.000000 0.290284
vn -0.995185 0.000000 0.098016
vn -0.995185 -0.000000 -0.098018
vn -0.956940 -0.000000 -0.290286
vn -0.881921 -0.000000 -0.471398
vn -0.773010 -0.000000 -0.634394
vn -0.634392 -0.000000 -0.773011
vn -0.471395 -0.000000 -0.881922
vn -0.000000 1.000000 0.000000
vn -0.098017 -0.000000 -0.995185
vn -0.290283 -0.000000 -0.956941
vn 0.000000 -1.000000 -0.000000
s off
f 1/1/1 2/2/1 3/3/1
f 3/3/2 4/4/2 5/5/2
f 5/5/3 6/6/3 7/7/3
f 7/7/4 8/8/4 9/9/4
f 9/9/5 10/10/5 11/11/5
f 11/11/6 12/12/6 13/13/6
f 13/13/7 14/14/7 15/15/7
f 15/15/8 16/16/8 17/17/8
f 17/18/9 18/19/9 19/20/9
f 19/20/10 20/21/10 21/22/10
f 21/22/11 22/23/11 23/24/11
f 23/24/12 24/25/12 25/26/12
f 25/26/13 26/27/13 27/28/13
f 27/28/14 28/29/14 29/30/14
f 29/30/15 30/31/15 31/32/15
f 31/32/16 32/33/16 33/34/16
f 33/34/17 34/35/17 35/36/17
f 35/36/18 36/37/18 37/38/18
f 37/38/19 38/39/19 39/40/19
f 39/40/20 40/41/20 41/42/20
f 41/42/21 42/43/21 43/44/21
f 43/44/22 44/45/22 45/46/22
f 45/46/23 46/47/23 47/48/23
f 47/48/24 48/49/24 49/50/24
f 49/50/25 50/51/25 51/52/25
f 51/52/26 52/53/26 53/54/26
f 53/54/27 54/55/27 55/56/27
f 55/56/28 56/57/28 57/58/28
f 57/58/29 58/59/29 59/60/29
f 59/60/30 60/61/30 61/62/30
f 4/63/31 2/64/31 6/65/31
f 63/66/32 64/67/32 1/1/32
f 61/62/33 62/68/33 63/66/33
f 1/69/34 3/70/34 63/71/34
f 2/2/1 4/4/1 3/3/1
f 4/4/2 6/6/2 5/5/2
f 6/6/3 8/8/3 7/7/3
f 8/8/4 10/10/4 9/9/4
f 10/10/5 12/12/5 11/11/5
f 12/12/6 14/14/6 13/13/6
f 14/14/7 16/16/7 15/15/7
f 16/16/8 18/72/8 17/17/8
f 18/19/9 20/21/9 19/20/9
f 20/21/10 22/23/10 21/22/10
f 22/23/11 24/25/11 23/24/11
f 24/25/12 26/27/12 25/26/12
f 26/27/13 28/29/13 27/28/13
f 28/29/14 30/31/14 29/30/14
f 30/31/15 32/33/15 31/32/15
f 32/33/16 34/35/16 33/34/16
f 34/35/17 36/37/17 35/36/17
f 36/37/18 38/39/18 37/38/18
f 38/39/19 40/41/19 39/40/19
f 40/41/20 42/43/20 41/42/20
f 42/43/21 44/45/21 43/44/21
f 44/45/22 46/47/22 45/46/22
f 46/47/23 48/49/23 47/48/23
f 48/49/24 50/51/24 49/50/24
f 50/51/25 52/53/25 51/52/25
f 52/53/26 54/55/26 53/54/26
f 54/55/27 56/57/27 55/56/27
f 56/57/28 58/59/28 57/58/28
f 58/59/29 60/61/29 59/60/29
f 60/61/30 62/68/30 61/62/30
f 2/64/31 64/73/31 6/65/31
f 64/73/31 62/74/31 6/65/31
f 62/74/31 60/75/31 6/65/31
f 60/75/31 58/76/31 6/65/31
f 58/76/31 56/77/31 6/65/31
f 56/77/31 54/78/31 6/65/31
f 54/78/31 52/79/31 6/65/31
f 52/79/31 50/80/31 6/65/31
f 50/80/31 48/81/31 6/65/31
f 48/81/31 46/82/31 6/65/31
f 46/82/31 44/83/31 6/65/31
f 44/83/31 42/84/31 6/65/31
f 42/84/31 40/85/31 6/65/31
f 38/86/31 36/87/31 34/88/31
f 38/86/31 34/88/31 32/89/31
f 40/85/31 38/86/31 32/89/31
f 6/65/31 40/85/31 32/89/31
f 28/90/31 32/89/31 30/91/31
f 26/92/31 32/89/31 28/90/31
f 24/93/31 32/89/31 26/92/31
f 22/94/31 32/89/31 24/93/31
f 20/95/31 32/89/31 22/94/31
f 10/96/31 14/97/31 12/98/31
f 10/96/31 16/99/31 14/97/31
f 18/100/31 32/89/31 20/95/31
f 16/99/31 32/89/31 18/100/31
f 10/96/31 32/89/31 16/99/31
f 8/101/31 6/65/31 32/89/31
f 10/96/31 8/101/31 32/89/31
f 64/67/32 2/2/32 1/1/32
f 62/68/33 64/67/33 63/66/33
f 3/70/34 5/102/34 63/71/34
f 5/102/34 7/103/34 63/71/34
f 7/103/34 9/104/34 63/71/34
f 9/104/34 11/105/34 63/71/34
f 11/105/34 13/106/34 63/71/34
f 13/106/34 15/107/34 63/71/34
f 15/107/34 17/108/34 63/71/34
f 17/108/34 19/109/34 63/71/34
f 19/109/34 21/110/34 63/71/34
f 21/110/34 23/111/34 63/71/34
f 23/111/34 25/112/34 63/71/34
f 53/113/34 49/114/34 51/115/34
f 25/112/34 27/116/34 29/117/34
f 63/71/34 25/112/34 29/117/34
f 35/118/34 31/119/34 33/120/34
f 35/118/34 29/117/34 31/119/34
f 63/71/34 29/117/34 35/118/34
f 41/121/34 37/122/34 39/123/34
f 41/121/34 35/118/34 37/122/34
f 63/71/34 35/118/34 41/121/34
f 47/124/34 43/125/34 45/126/34
f 61/127/34 63/71/34 41/121/34
f 53/113/34 47/124/34 49/114/34
f 53/113/34 43/125/34 47/124/34
f 59/128/34 61/127/34 41/121/34
f 57/129/34 59/128/34 41/121/34
f 55/130/34 57/129/34 41/121/34
f 53/113/34 55/130/34 43/125/34
f 55/130/34 41/121/34 43/125/34
